<?xml version="1.0" encoding="utf-8"?>
<!-- Generator: Adobe Illustrator 23.1.0, SVG Export Plug-In . SVG Version: 6.00 Build 0)  -->
<svg version="1.1" id="Layer_1" xmlns="http://www.w3.org/2000/svg" xmlns:xlink="http://www.w3.org/1999/xlink" x="0px" y="0px"
	 viewBox="0 0 90.7 81.3" style="enable-background:new 0 0 90.7 81.3;" xml:space="preserve">
<style type="text/css">
	.st0{fill:#636464;}
</style>
<g>
	<g>
		<path class="st0" d="M86.2,27c0-0.1-0.1-0.1-0.1-0.2c0.5-2.6,1-5.3,0.6-7.7c-0.5-3.2-2.1-4.3-5.2-4.9c-1.7-0.3-3.5-0.6-5.2-0.8
			c0,0,0-0.1,0-0.1C71.9,8.4,65.6,1,58.5,0.1c-8.1-1-16.3,3.4-23.2,7.2c-2.6-0.5-5.3-0.8-7.9-0.7c-2.3,0.2-3.4,1.8-4.2,3.8
			c-0.7,1.9-1.2,3.9-1.6,6c-3,2.4-6.2,5-7.4,8.8c-1,3.4-1.7,6.9-2.3,10.4c-1.6,8.1-3.2,16.5-3.8,24.8c-0.5,7.9,4,10.2,11,11.6
			c8.4,1.7,16.9,3.2,25.4,4.7c8.5,1.5,17,3,25.5,4.2c7.1,1,11.8,0.6,14.4-6.8c2.7-8,3.7-17,5-25.3c0.5-3.3,1-6.7,1.2-10
			C91,34.5,88.3,30.5,86.2,27z M88.5,37.1c-1.4,1.9-3.2,3.5-5.1,4.9c0.7-4,1.4-8.1,2.1-12.1c0,0,0-0.1,0-0.1
			C86.8,32.2,88.1,34.5,88.5,37.1z M56.1,2.1c6.6-0.4,12.7,6,17.1,11c-3.3-0.3-6.6-0.6-9.8-1.1c-6-0.9-11.9-1.8-17.9-2.6
			C43.3,9,41,8.5,38.6,8C44.1,5.1,49.9,2.5,56.1,2.1z M25.4,11c1-3.8,7-1.9,9.2-1.4c9.3,2,18.9,3,28.3,4.4c3.8,0.6,7.6,1.1,11.4,1.6
			c1.9,0.2,3.9,0.4,5.8,0.6c3.9,0.3,4.8,2.4,4.6,5.9c-0.4,7.2-2.4,14.7-3.7,21.8c-0.8,0.5-1.6,1-2.3,1.6c0.6-3.5,1.2-6.9,1.8-10.4
			c0.7-3.9,1.8-7.9,1.8-11.9c0-4.3-3.5-4.4-6.9-4.7C69.6,17.9,64,16.9,58.4,16c-6.1-0.9-12.2-1.6-18.3-2.6
			c-3.2-0.5-9.1-3.3-11.9-0.5c-1.1,1.1-1.2,3-1.5,4.4c-0.4,2.4-0.8,4.8-1.2,7.2c-0.7,4.2-1.3,8.3-1.9,12.5c-0.6-1.3-1.2-2.7-1.7-4.1
			c0,0,0,0,0-0.1c0.8-4.8,1.4-9.6,2.1-14.4C24.4,16,24.8,13.5,25.4,11z M54.2,49.3c-6.7-2.7-14.2,0.4-20.3,3.3
			c-0.5,0.2-1,0.5-1.5,0.7c-3.2-4.6-5.8-9.5-8.1-14.5c1.3-7.6,2.2-15.2,3.6-22.7c0.6-3.3,2.8-3.4,5.6-2.9c2.4,0.3,4.7,1.2,7.2,1.5
			c5.8,0.7,11.5,1.6,17.3,2.5c4.6,0.7,9.2,1.4,13.7,2c1.7,0.2,3.4,0.4,5.1,0.6c1.3,0.1,3.3,0.3,3.9,1.8c0.5,1.2,0.3,2.7,0.1,3.9
			c-0.7,7-2.4,14-3.6,20.9c-0.4,0.3-0.9,0.6-1.3,0.9c-4.4,3.2-8.8,6.5-13.8,8.9C60,53.2,57.3,50.5,54.2,49.3z M21.2,19.7
			c-0.4,3.1-0.6,6.3-1,9.4c-0.8-2-1.5-3.9-2.3-5.9C18.9,21.9,20,20.7,21.2,19.7z M10.3,59.8c0.5-7.5,2.1-15.1,3.5-22.5
			c0.6-3.2,1.3-6.4,2-9.6c0.2-0.8,0.5-1.5,0.8-2.2c3.8,10,7.8,19.9,13.9,28.7c-6.6,3.3-13.1,7.2-19.2,11.3c0,0,0,0,0,0
			C10.5,64.1,10.2,62.2,10.3,59.8z M67.8,78.4c-7.6-1.2-15.1-2.5-22.6-3.8c-7.3-1.3-14.5-2.6-21.8-3.9c-2.1-0.4-4.1-0.8-6.2-1.3
			c-2-0.5-3.6-1.2-4.7-2.2c5.7-3.8,11.6-7.2,17.6-10.5c6.5-3.5,14.7-7.9,22.3-5.9c6,1.5,11.4,10.9,14.8,15.5c3.1,4.1,6.7,8.4,9.1,13
			c-0.3,0-0.6,0-0.8,0C72.9,79.3,70.3,78.8,67.8,78.4z M82.9,71.8c-0.8,3.1-1.9,5.8-4.5,6.9c-2.7-5.5-7.2-10.6-10.9-15.5
			c-1.2-1.6-2.5-3.5-4-5.4c5.3-2.6,10-6.3,14.8-9.7c1.2-0.9,2.5-1.7,3.7-2.6c0.3,0,0.5-0.2,0.6-0.4c2-1.4,4-2.8,5.6-4.6
			c-0.3,3-0.7,6-1.2,9C86.1,56.9,84.8,64.4,82.9,71.8z"/>
		<path class="st0" d="M48.7,71.9c-4.9-1.4-9.9-2.1-15-2.8c-5-0.7-10.2-1.9-15.2-2c-0.1,0-0.1,0.1,0,0.1c4.7,1.6,10,2.1,14.9,3
			c5,0.9,10.1,1.8,15.2,2.1C48.9,72.3,48.9,72,48.7,71.9z"/>
		<path class="st0" d="M32.5,21.7c2-0.8,3.6-0.1,5,1.4c0.6,0.7,1.6,0.8,2.4,0.7c1.4-0.1,2.8-1.1,4-1.5c1.9-0.6,3.8,1.1,5.5,1.8
			c1.1,0.4,2.3,0.4,3.4,0.5c2.1,0.1,4.1,1,6.2,1.4c2,0.4,4.1,0.5,6.1,0.6c2.1,0.2,4.1,0.7,6.1,0.6c0.2,0,0.2-0.2,0-0.3
			c-4.2-1.7-8.7-1.4-13-2.2c-1.6-0.3-3-1.1-4.7-1.2c-2.4-0.1-4.2-0.5-6.4-1.5c-0.9-0.4-1.9-0.7-2.9-0.6c-2,0.4-4,2.4-6.1,1.5
			c-1-0.4-1.2-1.8-2.2-2.1c-1.4-0.5-2.4-0.1-3.6,0.7C32.4,21.6,32.4,21.8,32.5,21.7z"/>
		<path class="st0" d="M68.4,36.4c-1.8-0.4-3.7-0.7-5.5-0.8c-1.9-0.2-3.8-0.1-5.6,0.2c-3.2,0.5-5.5,0.2-8.4-1.4
			c-1.1-0.6-2.3-0.9-3.6-0.7c-1.1,0.2-2.1,0.5-3.2,0.6c-1.6,0.2-2.6-1.4-3.5-2.3c-2.1-1.9-5.3-0.7-7.1,0.9c-0.1,0.1,0,0.3,0.2,0.2
			c2.6-1.2,5-2,7.2,0.5c0.7,0.8,1.3,1.3,2.3,1.7c1.1,0.4,2.6-0.1,3.6-0.3c2.5-0.6,4.3,1.1,6.6,2c3,1.2,6.7-0.1,9.8-0.1
			c3.9,0,7.5,1.4,11.4,1.5c0.2,0,0.4-0.3,0.2-0.5C71.5,36.8,69.9,36.7,68.4,36.4z"/>
	</g>
</g>
</svg>
